<svg width="81" height="16" viewBox="0 0 81 16" fill="none" xmlns="http://www.w3.org/2000/svg">
<g clip-path="url(#clip0_4111_185)">
<path fill-rule="evenodd" clip-rule="evenodd" d="M10.3223 4.67412C9.66452 4.2346 8.89116 4 8.10004 4V0C9.68228 0 11.229 0.469192 12.5446 1.34824C13.8602 2.22729 14.8856 3.47672 15.4911 4.93852C16.0966 6.40032 16.255 8.00888 15.9463 9.56072C15.6376 11.1126 14.8757 12.538 13.7569 13.6568C12.6381 14.7757 11.2126 15.5376 9.66076 15.8463C8.10892 16.155 6.50036 15.9965 5.03856 15.391C3.57676 14.7855 2.32733 13.7602 1.44828 12.4446C0.569229 11.129 0.100037 9.58224 0.100037 8H4.10004C4.10004 8.79112 4.33464 9.56448 4.77416 10.2223C5.21368 10.8801 5.8384 11.3928 6.56932 11.6955C7.3002 11.9983 8.10448 12.0775 8.8804 11.9231C9.65632 11.7688 10.369 11.3878 10.9285 10.8284C11.4879 10.269 11.8688 9.55628 12.0232 8.78036C12.1775 8.00444 12.0983 7.20016 11.7956 6.46928C11.4928 5.73836 10.9801 5.11364 10.3223 4.67412Z" fill="#AAD9D1"/>
<path fill-rule="evenodd" clip-rule="evenodd" d="M4.10003 2.11397e-06C4.10003 0.52529 3.99657 1.04543 3.79555 1.53074C3.59453 2.01604 3.2999 2.45699 2.92846 2.82843C2.55703 3.19987 2.11607 3.4945 1.63077 3.69552C1.14547 3.89654 0.625322 4 0.100037 4L0.100037 8C1.15061 8 2.1909 7.79308 3.16151 7.39104C4.13211 6.989 5.01403 6.39972 5.75687 5.65684C6.49975 4.914 7.08903 4.03208 7.49107 3.06147C7.89311 2.09086 8.10003 1.05057 8.10003 0L4.10003 2.11397e-06Z" fill="#AAD9D1"/>
<path d="M50.3477 5.78101H48.4069V11.9459H50.3477V5.78101Z" fill="#AAD9D1"/>
<path d="M48.6228 4.62669C48.8256 4.82965 49.0792 4.93113 49.3836 4.93113C49.688 4.93113 49.9376 4.82965 50.132 4.62669C50.3268 4.41529 50.424 4.16157 50.424 3.86559C50.424 3.56116 50.3268 3.30744 50.132 3.10449C49.9376 2.90152 49.688 2.80005 49.3836 2.80005C49.0792 2.80005 48.8256 2.90152 48.6228 3.10449C48.428 3.30744 48.3308 3.56116 48.3308 3.86559C48.3308 4.16157 48.428 4.41529 48.6228 4.62669Z" fill="#AAD9D1"/>
<path d="M20.5625 11.9459V2.99023H22.5541V10.1954H26.5245V11.9459H20.5625Z" fill="#AAD9D1"/>
<path fill-rule="evenodd" clip-rule="evenodd" d="M30.111 12.0854C29.4768 12.0854 28.9017 11.9458 28.3859 11.6668C27.8785 11.3792 27.4768 10.9902 27.1808 10.4997C26.8848 10.0092 26.7368 9.45956 26.7368 8.85068C26.7368 8.2418 26.8848 7.69636 27.1808 7.21432C27.4768 6.73228 27.8785 6.35172 28.3859 6.07268C28.8933 5.78512 29.4683 5.64136 30.111 5.64136C30.7537 5.64136 31.3288 5.78092 31.8362 6.05996C32.3436 6.33904 32.7453 6.72384 33.0413 7.21432C33.3373 7.69636 33.4853 8.2418 33.4853 8.85068C33.4853 9.45956 33.3373 10.0092 33.0413 10.4997C32.7453 10.9902 32.3436 11.3792 31.8362 11.6668C31.3288 11.9458 30.7537 12.0854 30.111 12.0854ZM30.111 10.3222C30.3901 10.3222 30.6353 10.263 30.8468 10.1446C31.0582 10.0177 31.2189 9.84436 31.3288 9.62448C31.4472 9.39616 31.5064 9.1382 31.5064 8.85068C31.5064 8.56316 31.4472 8.31368 31.3288 8.10228C31.2104 7.8824 31.0455 7.71328 30.8341 7.59488C30.6311 7.468 30.3901 7.4046 30.111 7.4046C29.8404 7.4046 29.5994 7.468 29.388 7.59488C29.1766 7.71328 29.0117 7.8824 28.8933 8.10228C28.7749 8.32216 28.7157 8.57584 28.7157 8.86336C28.7157 9.14244 28.7749 9.39616 28.8933 9.62448C29.0117 9.84436 29.1766 10.0177 29.388 10.1446C29.5994 10.263 29.8404 10.3222 30.111 10.3222Z" fill="#AAD9D1"/>
<path fill-rule="evenodd" clip-rule="evenodd" d="M35.0223 14.356C35.5382 14.5928 36.1344 14.7112 36.8109 14.7112C37.4705 14.7112 38.0583 14.5801 38.5741 14.3179C39.09 14.0558 39.4959 13.6922 39.7919 13.2271C40.0878 12.7619 40.236 12.2123 40.236 11.578V5.78093H38.3331V6.19513C38.1916 6.07601 38.0308 5.97601 37.8511 5.89509C37.5212 5.73441 37.1449 5.65405 36.7221 5.65405C36.1555 5.65405 35.6523 5.78937 35.2126 6.05997C34.7728 6.32213 34.4261 6.68577 34.1724 7.15089C33.9187 7.60757 33.7919 8.12341 33.7919 8.69849C33.7919 9.26509 33.9187 9.78093 34.1724 10.2461C34.4261 10.7112 34.7728 11.0791 35.2126 11.3497C35.6523 11.6203 36.1555 11.7556 36.7221 11.7556C37.1365 11.7556 37.5128 11.6753 37.8511 11.5146C38.0149 11.4367 38.1629 11.345 38.295 11.2394V11.6287C38.295 12.06 38.1555 12.3941 37.8764 12.6309C37.6058 12.8677 37.2295 12.986 36.7475 12.986C36.3585 12.986 36.0244 12.9184 35.7453 12.7831C35.4747 12.6478 35.2295 12.449 35.0096 12.1869L33.8172 13.3793C34.1132 13.8021 34.5149 14.1277 35.0223 14.356ZM37.7876 9.85281C37.5931 9.97121 37.3606 10.0304 37.09 10.0304C36.8194 10.0304 36.5825 9.97121 36.3796 9.85281C36.1851 9.73441 36.0329 9.57373 35.9229 9.37077C35.813 9.15937 35.758 8.93525 35.758 8.69849C35.758 8.44477 35.813 8.21645 35.9229 8.01349C36.0329 7.81053 36.1893 7.64985 36.3923 7.53145C36.5952 7.41305 36.8278 7.35385 37.09 7.35385C37.3606 7.35385 37.5931 7.41305 37.7876 7.53145C37.9906 7.64985 38.1428 7.81053 38.2443 8.01349C38.3542 8.21645 38.4092 8.44477 38.4092 8.69849C38.4092 8.95217 38.3542 9.18049 38.2443 9.38345C38.1428 9.57797 37.9906 9.73441 37.7876 9.85281Z" fill="#AAD9D1"/>
<path fill-rule="evenodd" clip-rule="evenodd" d="M44.3204 12.0854C43.686 12.0854 43.1108 11.9458 42.5952 11.6668C42.0876 11.3792 41.686 10.9902 41.39 10.4997C41.094 10.0092 40.946 9.45956 40.946 8.85068C40.946 8.2418 41.094 7.69636 41.39 7.21432C41.686 6.73228 42.0876 6.35172 42.5952 6.07268C43.1024 5.78512 43.6776 5.64136 44.3204 5.64136C44.9628 5.64136 45.538 5.78092 46.0452 6.05996C46.5528 6.33904 46.9544 6.72384 47.2504 7.21432C47.5464 7.69636 47.6944 8.2418 47.6944 8.85068C47.6944 9.45956 47.5464 10.0092 47.2504 10.4997C46.9544 10.9902 46.5528 11.3792 46.0452 11.6668C45.538 11.9458 44.9628 12.0854 44.3204 12.0854ZM44.3204 10.3222C44.5992 10.3222 44.8444 10.263 45.056 10.1446C45.2672 10.0177 45.428 9.84436 45.538 9.62448C45.6564 9.39616 45.7156 9.1382 45.7156 8.85068C45.7156 8.56316 45.6564 8.31368 45.538 8.10228C45.4196 7.8824 45.2548 7.71328 45.0432 7.59488C44.8404 7.468 44.5992 7.4046 44.3204 7.4046C44.0496 7.4046 43.8084 7.468 43.5972 7.59488C43.3856 7.71328 43.2208 7.8824 43.1024 8.10228C42.984 8.32216 42.9248 8.57584 42.9248 8.86336C42.9248 9.14244 42.984 9.39616 43.1024 9.62448C43.2208 9.84436 43.3856 10.0177 43.5972 10.1446C43.8084 10.263 44.0496 10.3222 44.3204 10.3222Z" fill="#AAD9D1"/>
<path fill-rule="evenodd" clip-rule="evenodd" d="M55.0124 12.0727C54.5984 12.0727 54.2176 11.9924 53.8708 11.8317C53.6884 11.7471 53.5236 11.6462 53.3764 11.5288V14.5463H51.4608V5.78093H53.4016V6.20641C53.5424 6.09125 53.6988 5.99169 53.8708 5.90777C54.2176 5.73861 54.5984 5.65405 55.0124 5.65405C55.596 5.65405 56.112 5.79361 56.56 6.07269C57.0168 6.35173 57.372 6.73229 57.6256 7.21433C57.888 7.69637 58.0188 8.24605 58.0188 8.86337C58.0188 9.48073 57.888 10.0304 57.6256 10.5125C57.372 10.9945 57.0168 11.375 56.56 11.6541C56.112 11.9332 55.596 12.0727 55.0124 12.0727ZM54.6576 10.3222C54.9364 10.3222 55.1776 10.2587 55.3804 10.1319C55.592 10.0051 55.7568 9.83165 55.8752 9.61181C55.9936 9.39193 56.0528 9.14245 56.0528 8.86337C56.0528 8.57585 55.9936 8.32217 55.8752 8.10229C55.7568 7.88241 55.592 7.71329 55.3804 7.59489C55.1776 7.46801 54.9408 7.40461 54.67 7.40461C54.3996 7.40461 54.1584 7.46801 53.9472 7.59489C53.744 7.71329 53.5836 7.88241 53.4652 8.10229C53.3468 8.32217 53.2876 8.57585 53.2876 8.86337C53.2876 9.14245 53.3424 9.39193 53.4524 9.61181C53.5708 9.83165 53.7356 10.0051 53.9472 10.1319C54.1584 10.2587 54.3952 10.3222 54.6576 10.3222Z" fill="#AAD9D1"/>
<path d="M59.9184 11.9587C60.2736 12.0518 60.6328 12.0982 60.9964 12.0982C61.766 12.0982 62.3748 11.9207 62.8232 11.5655C63.2796 11.2103 63.508 10.7325 63.508 10.1321C63.508 9.74308 63.4364 9.43016 63.2924 9.1934C63.1488 8.94816 62.9628 8.75364 62.7344 8.60988C62.506 8.46612 62.2648 8.35192 62.0112 8.26736C61.7576 8.1828 61.5164 8.11092 61.2884 8.05172C61.06 7.99252 60.874 7.92488 60.73 7.84876C60.5864 7.77264 60.5144 7.67116 60.5144 7.54432C60.5144 7.42592 60.5696 7.33712 60.6792 7.27792C60.7892 7.21028 60.954 7.17648 61.174 7.17648C61.4024 7.17648 61.6348 7.22296 61.8716 7.316C62.1168 7.409 62.3368 7.56972 62.5312 7.79804L63.6348 6.68176C63.356 6.32656 62.9924 6.06016 62.544 5.8826C62.1044 5.69656 61.6224 5.60352 61.098 5.60352C60.5992 5.60352 60.1636 5.68808 59.7916 5.8572C59.4192 6.02636 59.1316 6.25892 58.9288 6.55488C58.726 6.8424 58.6244 7.18492 58.6244 7.5824C58.6244 7.95448 58.6964 8.26316 58.84 8.5084C58.9836 8.74516 59.17 8.93124 59.398 9.06652C59.6264 9.20184 59.8676 9.30756 60.1212 9.38364C60.3748 9.45976 60.616 9.53164 60.8444 9.59932C61.0724 9.65852 61.2588 9.7304 61.4024 9.81496C61.5548 9.89108 61.6308 10.0052 61.6308 10.1574C61.6308 10.2758 61.5672 10.3688 61.4404 10.4365C61.322 10.5042 61.1488 10.538 60.9204 10.538C60.5904 10.538 60.286 10.4788 60.0072 10.3604C59.728 10.2336 59.4868 10.0602 59.284 9.84032L58.1804 10.9566C58.392 11.1849 58.6456 11.3879 58.9416 11.5655C59.246 11.7346 59.5716 11.8657 59.9184 11.9587Z" fill="#AAD9D1"/>
<path d="M67.0473 12.0854C66.4809 12.0854 65.9777 11.9713 65.5381 11.743C65.1065 11.5062 64.7685 11.1848 64.5233 10.7789C64.2777 10.3645 64.1553 9.89097 64.1553 9.35817V5.78101H66.0961V9.33281C66.0961 9.54421 66.1297 9.72605 66.1977 9.87825C66.2737 10.0305 66.3837 10.1489 66.5273 10.2334C66.6713 10.318 66.8445 10.3603 67.0473 10.3603C67.3349 10.3603 67.5633 10.2715 67.7325 10.0939C67.9017 9.90785 67.9861 9.65417 67.9861 9.33281V5.78101H69.9269V9.34549C69.9269 9.88673 69.8045 10.3645 69.5589 10.7789C69.3137 11.1848 68.9757 11.5062 68.5441 11.743C68.1129 11.9713 67.6141 12.0854 67.0473 12.0854Z" fill="#AAD9D1"/>
<path d="M72.8324 5.78093H70.8916V11.9459H72.8324V8.34329C72.8324 8.13189 72.8748 7.95429 72.9592 7.81053C73.0524 7.66677 73.1752 7.55681 73.3272 7.48073C73.4796 7.39613 73.6528 7.35385 73.8472 7.35385C74.1264 7.35385 74.3588 7.44265 74.5448 7.62025C74.7396 7.78937 74.8368 8.03041 74.8368 8.34329V11.9459H76.7776V8.34329C76.7776 8.13189 76.82 7.95429 76.9044 7.81053C76.9976 7.66677 77.12 7.55681 77.2724 7.48073C77.4244 7.39613 77.598 7.35385 77.7924 7.35385C78.0716 7.35385 78.304 7.44265 78.49 7.62025C78.6844 7.78937 78.7816 8.03041 78.7816 8.34329V11.9459H80.7228V8.12765C80.7228 7.61181 80.6128 7.17205 80.3928 6.80841C80.1812 6.43629 79.8896 6.15301 79.5176 5.95853C79.154 5.75553 78.7352 5.65405 78.2616 5.65405C77.7796 5.65405 77.344 5.75977 76.9552 5.97121C76.7024 6.10589 76.4816 6.27973 76.2924 6.49269C76.116 6.26993 75.9016 6.08765 75.6484 5.94581C75.3104 5.75133 74.9256 5.65405 74.4944 5.65405C74.0376 5.65405 73.6276 5.75133 73.264 5.94581C73.1056 6.02673 72.962 6.12365 72.8324 6.23657V5.78093Z" fill="#AAD9D1"/>
</g>
<defs>
<clipPath id="clip0_4111_185">
<rect width="80.8" height="16" fill="white" transform="translate(0.100037)"/>
</clipPath>
</defs>
</svg>
